<svg id="Capa_1" enable-background="new 0 0 511.893 511.893" height="512" viewBox="0 0 511.893 511.893" width="512" xmlns="http://www.w3.org/2000/svg"><g><path d="m409.168 348.512c-1.461-2.065-1.804-4.715-.874-7.182l.129-.343c12.03-31.915 17.085-66.034 14.823-100.066-2.884-43.386-6.882-103.576-9.123-137.43-.976-14.741-12.784-26.439-27.66-27.289l-.649-.037c-14.32-.819-27.003 9.168-29.565 23.281l-12.53 69.031c-.23 1.266-1.332 2.186-2.619 2.186-5.339 3.242-10.393 6.842-15.15 10.749l-.445-.609-112.851-159.569c-9.712-13.733-28.69-17.727-42.684-8.394-14.519 9.683-18.105 29.364-8.094 43.519l-14.848-20.994c-9.844-13.92-29.109-17.223-43.028-7.379-13.92 9.844-17.224 29.109-7.38 43.028l19.902 28.141c-9.844-13.919-29.109-17.223-43.028-7.379-13.92 9.844-17.223 29.109-7.379 43.028l30.15 42.631c-9.844-13.919-29.108-17.222-43.028-7.378-13.92 9.844-17.223 29.109-7.379 43.029l149.438 211.302c9.744 13.778 22.838 24.887 38.192 32.403l14.231 6.966 25.486 36.037c2.006 2.836 5.395 4.357 8.847 3.97l209.607-23.506c4.448-.499 6.731-5.586 4.147-9.241z" fill="#ffefe7"/><g><g id="XMLID_145_"><g><path d="m187.092 45.351c-3.83-5.41-5.67-11.63-5.67-17.79 0-7.157 2.484-14.223 7.208-19.851-6.669-.338-13.496 1.468-19.372 5.625-8.51 6.01-13.05 15.54-13.05 25.23 0 6.16 1.84 12.38 5.67 17.79l92.08 130.21c12.585-7.232 16.219-23.724 7.838-35.576z" fill="#ffe0d1"/><path d="m201.248 218.966c12.649-7.959 16.028-24.904 7.398-37.106l-88.748-125.493c-3.83-5.41-5.67-11.64-5.67-17.8 0-5.635 1.55-11.225 4.514-16.096-5.141.511-10.225 2.321-14.744 5.515-8.51 6.01-13.05 15.55-13.05 25.23 0 6.16 1.84 12.39 5.67 17.8z" fill="#ffe0d1"/><g id="XMLID_146_"><g><path d="m344.11 369.174 53.848-31.089v-43.254l-71.647-113.719c-.11.089-.224.174-.333.263l-.47-.57-11.139-15.751c-.007-.001-.01-.001-.018-.002-13.27 10.704-24.561 23.477-33.55 37.953-12.45 20.077-20.096 43.137-22.11 66.685l-1.509 17.626 2.394 36.502c.018.28.038.559.058.839 2.986 41.415 48.516 65.278 84.476 44.517z" fill="#ffe0d1"/><path d="m423.248 240.926c2.2 33.15-2.53 66.39-13.9 97.59l-101.8 50.77-.187-.211c-16.419-18.478-26.211-41.9-27.828-66.566l-2.295-34.994 1.38-16.12c1.78-20.81 8.47-40.58 19.18-57.85 7.52-12.11 17.02-23 28.18-32.17 4.75-3.89 9.79-7.48 15.12-10.71 1.59-.97 2.69-2.56 3.02-4.39l12.13-66.83c2.56-14.11 15.25-24.1 29.57-23.28l.65.04c14.87.85 26.68 12.54 27.66 27.29 2.24 33.851 6.23 94.041 9.12 137.431z" fill="#ffefe7"/></g><path d="m91.478 124.679c-3.83-5.41-5.67-11.63-5.67-17.8 0-7.505 2.73-14.916 7.922-20.675-6.943-.55-14.1 1.237-20.232 5.571-8.51 6.02-13.05 15.55-13.05 25.23 0 6.17 1.84 12.39 5.67 17.8l87.84 124.21c11.509-9.747 13.658-26.674 4.95-38.988z" fill="#ffe0d1"/></g></g></g></g><path d="m315.803 499.979-37.777-55.567c-2.5-3.54-5.81-6.43-9.66-8.43l-2.23-1.16c-20.24-10.53-37.67-25.74-50.85-44.37l-155.28-219.56c-.808-1.142-1.508-2.327-2.141-3.533-1.591.755-3.142 1.647-4.629 2.699-13.92 9.844-17.223 29.109-7.379 43.029l149.438 211.302c9.744 13.778 22.838 24.887 38.192 32.403l14.231 6.966 25.486 36.037c2.006 2.836 5.395 4.357 8.847 3.97z" fill="#ffe0d1"/><g><path d="m507.681 474.817-92.39-130.636c-.032-.045 0-.148.023-.212l.127-.337c4.115-10.916 7.494-22.317 10.043-33.89.891-4.045-1.666-8.047-5.71-8.938-4.048-.895-8.047 1.665-8.938 5.711-2.396 10.872-5.568 21.579-9.433 31.831l-.127.337c-1.795 4.763-1.134 10.056 1.768 14.159l92.389 130.636c1.462 2.066 3.778 3.17 6.13 3.17 1.497 0 3.009-.447 4.324-1.378 3.382-2.39 4.185-7.071 1.794-10.453z"/><path d="m415.763 241.419c.753 11.338.652 22.921-.301 34.426-.342 4.128 2.728 7.752 6.855 8.094 4.129.341 7.751-2.728 8.094-6.855 1.014-12.246 1.122-24.579.318-36.658-2.883-43.387-6.882-103.575-9.123-137.429-1.223-18.482-16.147-33.22-34.715-34.281l-.649-.037c-18.063-1.042-34.14 11.618-37.373 29.43l-12.049 66.382c-3.188 1.95-6.274 4.031-9.27 6.217l-29.552-41.785c-2.393-3.382-7.073-4.186-10.454-1.792-3.382 2.392-4.185 7.072-1.793 10.454l30.156 42.639c-25.499 23.265-41.779 55.613-44.766 90.529l-1.379 16.121c-.353 4.127 2.706 7.759 6.833 8.112.217.019.433.027.647.027 3.853 0 7.13-2.951 7.464-6.86l1.379-16.121c3.345-39.096 25.366-74.593 58.905-94.954 3.422-2.076 5.794-5.526 6.508-9.463l12.13-66.827c1.882-10.37 11.244-17.723 21.757-17.134l.649.037c11.022.631 19.881 9.356 20.604 20.297 2.243 33.854 6.241 94.044 9.125 137.431z"/><path d="m255.905 462.343c-3.178-4.492-7.438-8.21-12.321-10.75l-2.23-1.16c-18.217-9.476-34.308-23.231-46.533-39.778-2.461-3.332-7.157-4.037-10.489-1.576s-4.037 7.157-1.576 10.488c13.574 18.375 31.443 33.649 51.675 44.173l2.23 1.16c2.773 1.443 5.192 3.554 6.997 6.105l26.675 37.718c1.462 2.066 3.778 3.17 6.13 3.17 1.497 0 3.009-.447 4.324-1.378 3.382-2.392 4.185-7.072 1.793-10.454z"/><path d="m51.885 208.824c-7.44-10.521-4.935-25.134 5.586-32.575 5.097-3.604 11.293-5.01 17.444-3.953 6.153 1.055 11.526 4.442 15.13 9.54l57.793 81.515c1.462 2.066 3.778 3.17 6.13 3.17 1.497 0 3.009-.447 4.324-1.378 3.382-2.392 4.185-7.072 1.793-10.454l-87.847-124.214c-3.604-5.097-5.008-11.292-3.953-17.445 1.055-6.152 4.442-11.525 9.539-15.13 5.096-3.604 11.289-5.012 17.444-3.953 6.152 1.055 11.525 4.443 15.129 9.539l84.732 119.809c1.462 2.066 3.778 3.17 6.13 3.17 1.497 0 3.009-.447 4.324-1.378 3.382-2.392 4.185-7.072 1.793-10.454l-104.632-147.948c-3.604-5.097-5.008-11.292-3.953-17.445 1.055-6.152 4.443-11.525 9.54-15.13 5.097-3.604 11.294-5.011 17.444-3.953 6.152 1.055 11.525 4.443 15.13 9.54l106.934 151.202c1.462 2.066 3.778 3.17 6.13 3.17 1.497 0 3.009-.447 4.324-1.378 3.382-2.392 4.185-7.072 1.793-10.454l-92.09-130.212c-7.436-10.521-4.929-25.13 5.59-32.57 5.097-3.604 11.294-5.01 17.444-3.953 6.152 1.055 11.525 4.442 15.13 9.54l61.051 86.324c2.392 3.381 7.072 4.184 10.454 1.792s4.185-7.072 1.793-10.454l-61.051-86.324c-5.918-8.368-14.74-13.931-24.842-15.663-10.101-1.731-20.273.573-28.641 6.491-7.276 5.146-12.207 12.384-14.576 20.326-5.746-6.414-13.424-10.685-22.039-12.162-10.101-1.733-20.273.573-28.641 6.49-8.368 5.918-13.93 14.74-15.663 24.842s.572 20.273 6.49 28.642l2.333 3.298c-8.418-.349-16.673 2.063-23.666 7.009-8.368 5.917-13.93 14.739-15.662 24.841s.573 20.273 6.49 28.642l12.635 17.864c-8.472-.385-16.781 2.026-23.816 7.002-17.273 12.217-21.388 36.208-9.169 53.485l124.452 175.768c1.462 2.064 3.777 3.167 6.127 3.167 1.499 0 3.012-.448 4.328-1.38 3.38-2.394 4.181-7.074 1.787-10.455z"/><path d="m105.521 439.135c-52.606-4.446-91.787-50.861-87.342-103.466l.332-3.923c.35-4.128-2.713-7.757-6.841-8.106-4.128-.337-7.756 2.714-8.105 6.841l-.332 3.924c-5.143 60.847 40.177 114.533 101.024 119.677.215.018.428.026.64.026 3.856 0 7.134-2.956 7.465-6.868.349-4.128-2.714-7.756-6.841-8.105z"/><path d="m109.227 395.291c-28.431-2.403-49.606-27.488-47.204-55.918l.332-3.92c.349-4.127-2.714-7.756-6.841-8.105-4.136-.345-7.757 2.714-8.105 6.842l-.332 3.92c-3.1 36.672 24.214 69.029 60.887 72.129.215.018.429.026.64.026 3.856 0 7.134-2.956 7.465-6.868.348-4.128-2.715-7.756-6.842-8.106z"/><path d="m270.37 15c32.983 0 59.817 26.834 59.817 59.816v1.166c0 4.143 3.358 7.5 7.5 7.5s7.5-3.357 7.5-7.5v-1.166c0-41.254-33.562-74.816-74.817-74.816-4.142 0-7.5 3.357-7.5 7.5s3.358 7.5 7.5 7.5z"/><path d="m270.37 59c8.722 0 15.817 7.095 15.817 15.816v1.166c0 4.143 3.358 7.5 7.5 7.5s7.5-3.357 7.5-7.5v-1.166c0-16.992-13.824-30.816-30.817-30.816-4.142 0-7.5 3.357-7.5 7.5s3.358 7.5 7.5 7.5z"/></g></g></svg>