<?xml version="1.0"?>
<svg xmlns="http://www.w3.org/2000/svg" xmlns:xlink="http://www.w3.org/1999/xlink" xmlns:svgjs="http://svgjs.com/svgjs" version="1.1" width="512" height="512" x="0" y="0" viewBox="0 0 512 512" style="enable-background:new 0 0 512 512" xml:space="preserve" class=""><g><g xmlns="http://www.w3.org/2000/svg"><g><path d="m422.93 91.93c0-22.249-18.101-40.35-40.35-40.35h-82.349v-41.58c0-5.523-4.477-10-10-10h-68.466c-5.523 0-10 4.477-10 10v41.58h-82.355c-22.244 0-40.34 18.101-40.34 40.35v379.72c0 22.249 18.097 40.35 40.34 40.35h253.17c22.249 0 40.35-18.101 40.35-40.35v-144.978c0-5.523-4.477-10-10-10s-10 4.477-10 10v144.978c0 11.221-9.129 20.35-20.35 20.35h-253.17c-11.216 0-20.34-9.129-20.34-20.35v-379.72c0-11.221 9.125-20.35 20.34-20.35h82.355v31.58h-10.116c-5.523 0-10 4.477-10 10s4.477 10 10 10h108.699c5.523 0 10-4.477 10-10s-4.477-10-10-10h-10.116v-31.58h82.349c11.221 0 20.35 9.129 20.35 20.35v146.756c0 5.523 4.477 10 10 10s10-4.477 10-10v-146.756zm-142.699-71.93v41.551c0 .01-.001.019-.001.029v41.58h-48.46v-41.58c0-.033-.005-.064-.005-.097v-41.483z" fill="#ffffff" data-original="#000000" style="" class=""/><path d="m351.547 334.62c3.944-4.754 6.148-10.817 6.148-16.997v-142.086c0-14.682-11.945-26.627-26.627-26.627h-150.138c-14.683 0-26.627 11.945-26.627 26.627v142.086c0 14.494 12.144 26.627 26.627 26.627h150.137c7.859 0 15.459-3.573 20.48-9.63zm-13.853-159.083v113.451c-5.583-5.681-12.426-10.167-20.153-12.984l-25.246-9.192c-1.147-.417-1.96-1.437-2.123-2.667l-1.159-8.735c10.897-9.331 17.823-23.174 17.823-38.611v-17.05c0-11.589-3.906-22.278-10.459-30.838h34.689c3.655-.001 6.628 2.971 6.628 6.626zm-4.533 148.369c-.651.216-1.406.344-2.091.344h-150.14c-.733 0-1.483-.133-2.174-.373l.39-2.359c2.019-12.234 10.513-22.474 22.167-26.723l25.205-9.185c8.199-2.973 14.002-10.193 15.144-18.834l.151-1.143c9.191 2.663 19.191 2.662 28.381-.004l.151 1.14c1.142 8.646 6.935 15.865 15.112 18.837l25.236 9.188c11.656 4.25 20.15 14.489 22.169 26.729l.389 2.348c-.029.012-.059.025-.09.035zm-46.324-124.158v17.05c0 16.668-13.883 30.654-30.51 30.83-16.873.169-31.167-13.9-31.167-30.83v-17.05c0-17.004 13.834-30.838 30.839-30.838s30.838 13.834 30.838 30.838zm-105.907-30.838h34.689c-6.553 8.56-10.459 19.25-10.459 30.838v17.05c0 15.444 6.931 29.291 17.835 38.622l-1.159 8.73c-.161 1.221-.979 2.239-2.15 2.664l-25.221 9.19c-7.731 2.818-14.578 7.309-20.163 12.996v-113.463c0-3.655 2.973-6.627 6.628-6.627z" fill="#ffffff" data-original="#000000" style="" class=""/><path d="m301.692 400.039c5.523 0 10-4.477 10-10s-4.477-10-10-10h-93.388c-5.523 0-10 4.477-10 10s4.477 10 10 10z" fill="#ffffff" data-original="#000000" style="" class=""/><path d="m168.304 441.909c0 5.523 4.477 10 10 10h155.388c5.523 0 10-4.477 10-10s-4.477-10-10-10h-155.388c-5.523 0-10 4.477-10 10z" fill="#ffffff" data-original="#000000" style="" class=""/><path d="m421.24 276.4c-5.13-7.838-17.564-4.375-18.278 4.816-.693 8.925 10.386 14.141 16.861 7.973 3.479-3.315 4.082-8.79 1.417-12.789z" fill="#ffffff" data-original="#000000" style="" class=""/></g></g></g></svg>
